<svg width="476" height="347" viewBox="0 0 476 347" fill="none" xmlns="http://www.w3.org/2000/svg">
<mask id="mask0_2141_52" style="mask-type:alpha" maskUnits="userSpaceOnUse" x="0" y="0" width="476" height="346">
<path d="M0 0H476V346H0V0Z" fill="#FBF9F8"/>
</mask>
<g mask="url(#mask0_2141_52)">
<circle cx="238" cy="238" r="238" fill="white"/>
</g>
<path d="M352.093 197.233C372.578 197.233 389.185 180.624 389.185 160.135C389.185 139.646 372.578 123.036 352.093 123.036C331.607 123.036 315 139.646 315 160.135C315 180.624 331.607 197.233 352.093 197.233Z" fill="#FFEEE4"/>
<path d="M362.104 192.809C382.59 192.809 399.197 176.2 399.197 155.711C399.197 135.222 382.59 118.612 362.104 118.612C341.619 118.612 325.012 135.222 325.012 155.711C325.012 176.2 341.619 192.809 362.104 192.809Z" fill="white"/>
<path d="M362.109 193.342C352.123 193.329 342.55 189.356 335.49 182.294C328.429 175.232 324.456 165.658 324.443 155.671C324.454 145.683 328.425 136.108 335.487 129.045C342.548 121.983 352.122 118.01 362.109 118C372.095 118.01 381.669 121.983 388.731 129.045C395.792 136.108 399.763 145.683 399.774 155.671C399.763 165.659 395.792 175.235 388.731 182.297C381.669 189.36 372.095 193.332 362.109 193.342ZM362.109 119.136C352.42 119.136 343.129 122.985 336.278 129.837C329.427 136.688 325.579 145.981 325.579 155.671C325.579 160.469 326.524 165.22 328.36 169.653C330.195 174.086 332.886 178.113 336.278 181.506C339.67 184.898 343.697 187.59 348.129 189.426C352.561 191.262 357.311 192.207 362.109 192.207C366.906 192.207 371.656 191.262 376.088 189.426C380.52 187.59 384.547 184.898 387.939 181.506C391.331 178.113 394.022 174.086 395.858 169.653C397.694 165.22 398.638 160.469 398.638 155.671C398.628 145.988 394.775 136.705 387.925 129.862C381.076 123.019 371.79 119.175 362.109 119.175V119.136Z" fill="#FF4600"/>
<path d="M364.144 156.778L377.986 133.77L376.693 132.99L363.592 154.773L348.802 146.973L348.091 148.306L364.144 156.778Z" fill="#535353"/>
<path d="M332.645 155.148H325.072V156.284H332.645V155.148Z" fill="#FF4600"/>
<path d="M362.678 185.058H361.543V192.631H362.678V185.058Z" fill="#FF4600"/>
<path d="M399.022 155.148H391.449V156.284H399.022V155.148Z" fill="#FF4600"/>
<path d="M362.678 118.859H361.543V126.433H362.678V118.859Z" fill="#FF4600"/>
<path d="M412.624 328.61C405.302 328.61 399.328 323.037 399.328 316.161C399.328 309.285 405.288 303.713 412.624 303.713C419.96 303.713 425.912 309.278 425.912 316.161C425.912 323.045 419.945 328.61 412.624 328.61ZM412.624 308.399C407.843 308.399 403.955 311.892 403.955 316.191C403.955 320.489 407.843 323.982 412.624 323.982C417.405 323.982 421.285 320.482 421.285 316.191C421.285 311.9 417.39 308.399 412.624 308.399Z" fill="#FF4600"/>
<path d="M407.93 344.142H378.835L373.863 293.652H412.901L407.93 344.142Z" fill="white"/>
<path d="M408.377 344.485H378.359L373.285 293H413.429L408.377 344.485ZM379.281 343.489H407.498L412.374 293.996H374.427L379.281 343.489Z" fill="#FF4600"/>
<path d="M402.873 339.792H383.896L380.652 308.144H406.109L402.873 339.792Z" fill="#FFEEE4"/>
<path d="M153.11 103C154.284 105.48 155.351 107.997 156.392 110.498L157.913 114.306L159.369 118.13L157.192 117.487L160.847 114.611C162.069 113.652 163.313 112.726 164.545 111.789L166.034 110.648L166.723 112.372C167.219 113.62 167.678 114.879 168.158 116.121C168.638 117.364 169.07 118.644 169.529 119.902C169.988 121.161 170.41 122.43 170.815 123.716C171.221 125.001 171.632 126.275 172 127.572L170.933 128C170.292 126.815 169.675 125.62 169.081 124.417C168.478 123.217 167.918 122.002 167.342 120.791C166.765 119.581 166.216 118.36 165.682 117.133C165.148 115.907 164.615 114.681 164.081 113.449L166.258 114.033C165.036 114.991 163.83 115.961 162.598 116.903L158.862 119.715L157.288 120.909L156.685 119.072L155.41 115.179L154.193 111.264C153.403 108.645 152.651 106.015 152 103.353L153.11 103Z" fill="#FF4600"/>
<path d="M257 108.389C256.317 111.171 255.522 113.892 254.698 116.613L253.422 120.68L252.078 124.719L251.445 126.628L249.765 125.387L245.878 122.466C244.585 121.492 243.314 120.48 242.031 119.489L244.316 118.877C243.756 120.163 243.196 121.431 242.636 122.705C242.076 123.979 241.471 125.242 240.894 126.511C240.318 127.78 239.696 129.031 239.063 130.278C238.43 131.524 237.798 132.77 237.12 134L236 133.549C236.386 132.203 236.795 130.868 237.238 129.543C237.68 128.219 238.139 126.9 238.593 125.582C239.046 124.263 239.534 122.961 240.032 121.659C240.53 120.357 241.018 119.05 241.533 117.765L242.255 115.967L243.818 117.153C245.111 118.132 246.422 119.094 247.698 120.085L251.534 123.078L249.25 123.746L250.778 119.768L252.38 115.817C253.466 113.191 254.592 110.576 255.824 108L257 108.389Z" fill="#FF4600"/>
<path d="M214.609 85C214.961 87.8258 215.204 90.6571 215.415 93.4884L215.691 97.7382L215.903 101.988L216 103.996L214.078 103.44L209.547 102.11C208.037 101.665 206.537 101.176 205.033 100.714L206.878 99.3235C206.841 100.714 206.765 102.105 206.711 103.495C206.657 104.886 206.554 106.277 206.478 107.662C206.402 109.047 206.283 110.443 206.148 111.834C206.012 113.224 205.882 114.615 205.704 116H204.556C204.43 114.602 204.333 113.208 204.264 111.817C204.183 110.426 204.15 109.036 204.096 107.64C204.042 106.243 204.026 104.858 204.015 103.462C204.004 102.066 203.988 100.681 204.015 99.2901V97.3544L205.839 97.9106C207.344 98.3612 208.86 98.7895 210.365 99.2568L214.874 100.67L213.044 102.11V97.855L213.093 93.5997C213.158 90.7572 213.25 87.9203 213.456 85.0723L214.609 85Z" fill="#FF4600"/>
<path d="M254.677 202.924L220.112 200.822L175.049 212.743C167.253 214.802 160.059 218.687 154.061 224.077C148.063 229.466 143.435 236.207 140.557 243.74L112.377 317.552L167.757 268.491L183.007 345.759L286.452 345.422L286.123 238.146L254.677 202.924Z" fill="#FF4600"/>
<path d="M227.106 242.978C220.839 242.978 214.989 240.54 211.123 236.227L211.855 235.56C215.999 240.174 222.544 242.539 229.353 241.873C232.949 241.529 236.413 240.337 239.458 238.395C242.504 236.452 245.046 233.814 246.874 230.698L247.73 231.211C245.827 234.476 243.174 237.241 239.992 239.278C236.809 241.315 233.188 242.566 229.427 242.927C228.654 242.983 227.88 243 227.106 242.978Z" fill="#DD3D00"/>
<path d="M231.424 229.476C224.835 232.683 216.664 229.52 213.333 222.431L212.213 220.037L200.813 195.814L193.836 180.978L227.515 164.692L242.158 195.872C248.205 208.731 243.402 223.676 231.424 229.476Z" fill="#FFBC96"/>
<path d="M230.692 189.553C227.727 204 220.317 213.9 212.161 220.037L200.762 195.814L230.692 189.553Z" fill="#FF9C78"/>
<path d="M234.666 171.48C234.666 188.923 224.833 200.88 212.357 207.046C199.523 213.387 186.117 189.018 179.718 172.725C173.07 155.81 191.367 143.127 206.683 143.127C222 143.127 234.666 154.03 234.666 171.48Z" fill="#FFBC96"/>
<path d="M235.362 161.529C233.898 143.626 230.237 126.696 213.647 131.023C207.343 122.236 180.986 122.397 174.521 143.289C170.347 156.77 156.949 163.353 156.949 163.353C173.056 171.81 187.853 168.64 208.507 152.911C214.972 162.357 233.4 163.023 233.4 163.023L235.362 161.529Z" fill="#535353"/>
<path d="M232.899 165.851C233.64 160.206 230.665 155.16 226.254 154.58C221.842 154.001 217.665 158.108 216.924 163.753C216.183 169.398 219.158 174.444 223.57 175.024C227.981 175.603 232.158 171.496 232.899 165.851Z" fill="#FFBC96"/>
<path d="M234.118 164.656C233.639 165.068 233.261 165.587 233.016 166.17C232.771 166.753 232.664 167.385 232.705 168.017C232.715 168.657 232.814 169.293 232.998 169.906C233.177 170.525 233.481 171.101 233.891 171.597L233.598 172.103C232.802 171.793 232.155 171.191 231.79 170.419C231.412 169.675 231.216 168.851 231.219 168.017C231.211 167.166 231.439 166.329 231.878 165.6C232.095 165.234 232.384 164.915 232.728 164.664C233.071 164.412 233.462 164.232 233.877 164.136L234.118 164.656Z" fill="#FF9C78"/>
<path d="M206.31 178.082C207.694 177.99 208.732 176.657 208.629 175.103C208.526 173.549 207.321 172.364 205.937 172.456C204.553 172.548 203.515 173.882 203.618 175.435C203.721 176.989 204.926 178.174 206.31 178.082Z" fill="#535353"/>
<path d="M193.925 182.97C195.102 182.515 195.643 181.078 195.134 179.762C194.625 178.446 193.258 177.748 192.082 178.203C190.905 178.658 190.364 180.094 190.873 181.411C191.382 182.727 192.749 183.425 193.925 182.97Z" fill="#535353"/>
<path d="M212.968 168.178C213.027 168.969 208.839 168.712 207.038 169.093C205.5 169.415 203.157 170.917 202.103 169.423C201.151 168.075 203.567 166.545 206.496 166.347C209.425 166.15 212.917 167.387 212.968 168.178Z" fill="#535353"/>
<path d="M185.973 176.848C186.441 177.493 188.579 175.274 189.809 174.703C190.863 174.212 193.096 174.263 192.738 172.579C192.408 171.056 190.131 171.005 188.345 172.286C186.558 173.568 185.504 176.204 185.973 176.848Z" fill="#535353"/>
<path d="M202.746 194.598C203.745 193.486 205.028 192.668 206.458 192.233C207.84 191.768 209.301 191.579 210.756 191.676L210.865 192.247C209.583 192.801 208.265 193.269 206.919 193.646C205.616 194.041 204.401 194.525 203.09 195.066L202.746 194.598Z" fill="#535353"/>
<path d="M198.975 182.105C199.072 183.243 198.846 184.385 198.324 185.401C198.049 185.916 197.696 186.385 197.277 186.792C196.946 187.075 196.653 187.4 196.405 187.759C196.356 187.884 196.336 188.019 196.347 188.154C196.347 188.256 196.347 188.264 196.347 188.286C196.347 188.308 196.391 188.344 196.413 188.388C196.722 188.655 197.084 188.855 197.474 188.974C198.436 189.285 199.414 189.544 200.403 189.75V190.336C199.312 190.495 198.202 190.461 197.123 190.234C196.486 190.117 195.891 189.837 195.395 189.421C195.241 189.267 195.112 189.089 195.014 188.894C194.927 188.694 194.875 188.481 194.861 188.264C194.817 187.873 194.883 187.477 195.051 187.121C195.371 186.596 195.786 186.134 196.274 185.759C196.63 185.456 196.95 185.112 197.226 184.734C197.761 183.911 198.15 183.002 198.375 182.047L198.975 182.105Z" fill="#FF9C78"/>
<path d="M312.305 238.966C307.478 228.817 300.02 220.148 290.706 213.861C281.393 207.574 270.565 203.898 259.349 203.217L254.678 202.924L289.089 281.276L326.75 267.29L312.305 238.966Z" fill="#FF4600"/>
<path d="M192.093 187.898C191.72 182.172 192.716 168.742 189.238 170.236C185.76 171.73 184.845 191.127 184.845 191.127C184.845 191.127 184.347 158.791 180.621 160.285C176.894 161.778 176.887 185.181 168.687 210.027L122.561 307.374C121.266 310.108 120.613 313.103 120.652 316.128C120.692 319.154 121.422 322.13 122.789 324.83C124.156 327.529 126.121 329.881 128.536 331.703C130.951 333.526 133.751 334.772 136.721 335.346C141.251 336.234 145.949 335.514 150.005 333.31C154.061 331.106 157.222 327.556 158.942 323.271C170.876 293.607 192.803 229.586 194.934 217.093C196.676 206.9 196.223 202.492 195.549 199.871C194.458 195.55 192.386 192.358 192.093 187.898Z" fill="#FFBC96"/>
<path d="M169.008 207.874C170.352 204.005 171.419 200.046 172.2 196.026C173.042 192.013 173.759 187.971 174.484 183.936L176.681 171.803C177.061 169.782 177.457 167.76 177.925 165.747C178.167 164.744 178.423 163.74 178.738 162.737C178.898 162.239 179.086 161.75 179.302 161.273C179.422 161.018 179.561 160.773 179.719 160.54C179.914 160.217 180.218 159.973 180.576 159.852H180.539C180.684 159.824 180.831 159.807 180.978 159.801C181.12 159.827 181.258 159.871 181.388 159.933C181.589 160.044 181.765 160.193 181.908 160.372C182.144 160.665 182.336 160.991 182.479 161.339C182.751 161.975 182.974 162.631 183.146 163.301C183.49 164.612 183.739 165.93 183.951 167.248C184.361 169.891 184.683 172.542 184.866 175.193C185.298 180.502 185.532 185.825 185.481 191.156H184.346C184.471 188.147 184.698 185.159 185.034 182.171C185.326 179.158 185.902 176.179 186.755 173.274C186.999 172.523 187.325 171.801 187.729 171.122C187.955 170.749 188.248 170.422 188.593 170.155C188.793 169.998 189.022 169.884 189.268 169.819C189.513 169.753 189.769 169.738 190.02 169.774C190.138 169.774 190.255 169.847 190.364 169.884C190.499 169.916 190.624 169.979 190.731 170.067C190.803 170.118 190.869 170.177 190.928 170.243C190.968 170.292 191.005 170.343 191.038 170.397C191.103 170.498 191.162 170.603 191.214 170.711C191.376 171.082 191.503 171.467 191.595 171.861C191.776 172.604 191.915 173.357 192.012 174.117C192.38 177.109 192.536 180.124 192.48 183.138C192.48 184.654 192.378 186.126 192.48 187.583C192.594 189.047 192.839 190.498 193.213 191.918C193.602 193.346 194.064 194.754 194.596 196.136C195.182 197.533 195.645 198.978 195.98 200.456C196.58 203.429 196.726 206.476 196.412 209.492C196.117 212.485 195.565 215.447 194.765 218.345L194.333 218.235C195.071 215.353 195.561 212.414 195.797 209.448C196.049 206.506 195.851 203.543 195.211 200.661C194.866 199.224 194.403 197.818 193.827 196.458C193.286 195.052 192.788 193.631 192.363 192.167C191.961 190.7 191.689 189.2 191.551 187.685C191.404 186.155 191.492 184.632 191.492 183.16C191.523 180.191 191.352 177.223 190.98 174.278C190.882 173.556 190.745 172.839 190.569 172.132C190.487 171.799 190.377 171.473 190.24 171.158C190.209 171.098 190.175 171.039 190.138 170.982C190.101 170.902 190.079 170.902 190.079 170.902C190.079 170.902 189.999 170.865 189.947 170.843L189.764 170.777C189.325 170.704 188.842 171.1 188.49 171.685C188.135 172.299 187.847 172.95 187.634 173.626C186.818 176.467 186.276 179.38 186.016 182.325C185.701 185.254 185.496 188.256 185.393 191.222H184.258C184.31 185.935 184.134 180.634 183.731 175.361C183.526 172.725 183.255 170.089 182.867 167.49C182.662 166.186 182.428 164.89 182.135 163.631C181.982 163.013 181.781 162.408 181.535 161.822C181.427 161.56 181.284 161.313 181.11 161.09C181.049 161.009 180.975 160.94 180.891 160.885C180.869 160.891 180.846 160.891 180.825 160.885C180.817 160.89 180.808 160.893 180.799 160.893C180.79 160.893 180.781 160.89 180.773 160.885H180.737C180.618 160.958 180.517 161.058 180.444 161.177C180.318 161.37 180.206 161.57 180.107 161.778C179.906 162.229 179.73 162.691 179.58 163.162C179.265 164.121 179.009 165.102 178.767 166.091C178.291 168.068 177.881 170.082 177.493 172.095L175.26 184.207C174.528 188.249 173.723 192.262 172.808 196.297C171.952 200.326 170.811 204.291 169.396 208.159L169.008 207.874Z" fill="#FF9C78"/>
<path d="M344.76 321.989C344.592 333.449 339.599 341.46 333.339 346.073L320.636 345.875L317.495 345.824H317.422L302.494 311.833V311.752L289.117 281.29L326.771 267.304L340.829 301.801C343.684 309.431 344.848 316.16 344.76 321.989Z" fill="#FFBC96"/>
<path d="M334.334 308.267L235.494 319.331L222.638 315.172C219.771 314.245 216.719 314.043 213.755 314.584C210.791 315.124 208.007 316.391 205.652 318.269C194.435 327.232 176.198 343.745 180.927 345.077C188.886 347.318 199.275 343.13 208.61 340.786C213.759 339.486 219.205 340.103 223.933 342.522L230.398 345.839H328.887L334.334 308.267Z" fill="#FFBC96"/>
<path d="M183.26 343.328C185.932 341.768 188.641 340.282 191.357 338.825C194.074 337.367 196.826 335.954 199.557 334.519C200.939 333.765 202.373 333.111 203.848 332.564C205.352 332.04 206.908 331.682 208.489 331.495C210.063 331.32 211.65 331.303 213.226 331.443C214.793 331.603 216.338 331.934 217.832 332.432L217.678 332.996C216.19 332.691 214.679 332.519 213.161 332.483C211.658 332.431 210.154 332.534 208.673 332.791C207.194 333.039 205.743 333.426 204.338 333.948C202.929 334.498 201.555 335.133 200.224 335.852C197.456 337.221 194.718 338.634 191.928 339.96C189.139 341.285 186.357 342.618 183.531 343.863L183.26 343.328Z" fill="#FF9C78"/>
<path d="M184.699 338.385C186.493 336.686 188.36 335.09 190.286 333.538C192.211 331.985 194.166 330.484 196.179 329.056C198.197 327.612 200.288 326.275 202.446 325.051C204.643 323.901 206.839 322.649 209.475 322.407L209.526 322.986C208.378 323.287 207.275 323.74 206.246 324.333C205.17 324.875 204.138 325.527 203.105 326.171C201.055 327.474 199.049 328.873 197.036 330.272C195.023 331.67 193.06 333.12 191.054 334.541C189.048 335.961 187.079 337.426 185.073 338.839L184.699 338.385Z" fill="#FF9C78"/>
<path d="M315.622 310.84L302.359 311.166L302.396 312.659L315.658 312.333L315.622 310.84Z" fill="#FF9C78"/>
<path d="M279.837 261.349L278.943 261.788L288.569 281.396L289.463 280.957L279.837 261.349Z" fill="#DD3D00"/>
<path opacity="0.5" d="M344.761 321.99C344.592 333.45 339.599 341.461 333.339 346.074L320.636 345.876C320.633 345.859 320.633 345.842 320.636 345.825C320.154 344.126 319.907 342.37 319.904 340.604C319.902 336.698 321.08 332.882 323.282 329.656C325.485 326.43 328.61 323.944 332.248 322.524C334.495 321.648 336.887 321.201 339.299 321.206C341.148 321.2 342.988 321.464 344.761 321.99Z" fill="#FF9C78"/>
<path d="M187.289 333.83H130.592V345.766H187.289V333.83Z" fill="#A1A1A1"/>
<path d="M149.818 345.766H59.8008L33.9414 255.734H123.959L149.818 345.766Z" fill="#D6D6D6"/>
<path d="M59.4438 345.869L33.4453 255.361H61.2961V256.108H34.441L60.1613 345.664L59.4438 345.869Z" fill="#A1A1A1"/>
<path d="M140.182 312.851L123.68 256.108H82.1816V255.361H124.236L140.892 312.646L140.182 312.851Z" fill="#A1A1A1"/>
<path d="M464 344L10 344V346L464 346V344Z" fill="#A1A1A1"/>
</svg>
