<svg width="476" height="346" viewBox="0 0 476 346" fill="none" xmlns="http://www.w3.org/2000/svg">
<g clip-path="url(#clip0_2221_52)">
<circle cx="238" cy="238" r="238" fill="white"/>
<path d="M133 270.7L116.2 342L150.5 345L164.9 280.2L133 270.7Z" fill="#FFBC96"/>
<path d="M168.301 280.2L165.801 287.6L157.101 285.2L130.701 277.9L127.101 276.9L132.301 264.2L139.101 247.4C143.101 236.9 149.701 227.6 158.501 220.5C163.301 216.7 168.401 213.2 174.201 211.3C178.101 210 190.201 207.1 190.201 207.1L206.501 202.8V203.6C208.001 225.1 237.301 231.6 244.001 201.5V201.3L252.601 201.8L284.001 237L284.201 346.3L180.801 346.7" fill="#FF4600"/>
<path d="M243.9 201.5C237.1 231.6 207.8 225 206.4 203.6V202.8L217.9 199.8L243.9 201.4V201.5Z" fill="#FF4600"/>
<path d="M310.1 237.899C305.3 227.799 297.8 219.099 288.5 212.799C279.2 206.499 268.4 202.799 257.1 202.199L252.4 201.899L286.8 280.299L324.5 266.299L310.1 237.899Z" fill="#FF4600"/>
<path d="M353.1 197.2C373.6 197.2 390.2 180.6 390.2 160.1C390.2 139.6 373.6 123 353.1 123C332.6 123 316 139.6 316 160.1C316 180.6 332.6 197.2 353.1 197.2Z" fill="#FFEEE4"/>
<path d="M363.1 192.8C383.6 192.8 400.2 176.2 400.2 155.7C400.2 135.2 383.6 118.6 363.1 118.6C342.6 118.6 326 135.2 326 155.7C326 176.2 342.6 192.8 363.1 192.8Z" fill="white"/>
<path d="M363.1 193.3C353.1 193.3 343.5 189.3 336.5 182.3C329.4 175.2 325.5 165.7 325.5 155.7C325.5 145.7 329.5 136.1 336.5 129.1C343.6 122 353.1 118.1 363.1 118.1C373.1 118.1 382.7 122.1 389.7 129.1C396.8 136.2 400.7 145.7 400.7 155.7C400.7 165.7 396.7 175.3 389.7 182.3C382.7 189.4 373.1 193.3 363.1 193.3ZM363.1 119.1C353.4 119.1 344.1 122.9 337.3 129.8C330.4 136.7 326.6 145.9 326.6 155.6C326.6 160.4 327.5 165.1 329.4 169.6C331.2 174 333.9 178.1 337.3 181.5C340.7 184.9 344.7 187.6 349.2 189.4C353.6 191.2 358.4 192.2 363.2 192.2C368 192.2 372.7 191.3 377.2 189.4C381.6 187.6 385.7 184.9 389.1 181.5C392.5 178.1 395.2 174.1 397 169.6C398.8 165.1 399.8 160.4 399.8 155.6C399.8 145.9 395.9 136.6 389.1 129.8C382.1 123 372.8 119.2 363.1 119.1Z" fill="#FF4600"/>
<path d="M365.1 156.8L378.9 133.8L377.6 133L364.5 154.8L349.8 147L349.1 148.3L365.1 156.8Z" fill="#535353"/>
<path d="M333.6 155.1H326V156.2H333.6V155.1Z" fill="#FF4600"/>
<path d="M363.7 185.1H362.6V192.7H363.7V185.1Z" fill="#FF4600"/>
<path d="M400 155.1H392.4V156.2H400V155.1Z" fill="#FF4600"/>
<path d="M363.7 118.9H362.6V126.5H363.7V118.9Z" fill="#FF4600"/>
<path d="M413.6 328.6C406.3 328.6 400.3 323 400.3 316.2C400.3 309.3 406.3 303.8 413.6 303.8C420.9 303.8 426.9 309.4 426.9 316.2C426.9 323 420.9 328.6 413.6 328.6ZM413.6 308.4C408.8 308.4 404.9 311.9 404.9 316.2C404.9 320.5 408.8 324 413.6 324C418.4 324 422.3 320.5 422.3 316.2C422.3 311.9 418.4 308.4 413.6 308.4Z" fill="#FF4600"/>
<path d="M408.9 344.1H379.8L374.8 293.6H413.8L408.9 344.1Z" fill="white"/>
<path d="M409.4 344.5H379.4L374.3 293H414.4L409.4 344.5ZM380.3 343.5H408.5L413.4 294H375.5L380.3 343.5Z" fill="#FF4600"/>
<path d="M403.9 339.8H384.9L381.7 308.2H407.2L403.9 339.8Z" fill="#FFEEE4"/>
<path d="M228.1 243C221.8 243 216 240.6 212.1 236.2L212.8 235.5C216.9 240.1 223.5 242.5 230.3 241.8C233.9 241.5 237.4 240.3 240.4 238.3C243.4 236.4 246 233.7 247.8 230.6L248.7 231.1C246.8 234.4 244.1 237.1 241 239.2C237.8 241.2 234.2 242.5 230.4 242.8C229.7 243 228.9 243 228.1 243Z" fill="#DD3D00"/>
<path d="M232.4 229.5C225.8 232.7 217.6 229.5 214.3 222.5L213.2 220.1L201.8 195.9L194.8 181.1L228.5 164.8L243.1 196C249.2 208.7 244.4 223.7 232.4 229.5Z" fill="#FFBC96"/>
<path d="M231.7 189.6C228.7 204 221.3 213.9 213.2 220.1L201.8 195.9L231.7 189.6Z" fill="#FF9C78"/>
<path d="M235.7 171.5C235.7 188.9 225.9 200.9 213.4 207.1C200.6 213.4 187.2 189.1 180.8 172.8C174.2 155.9 192.4 143.2 207.8 143.2C223 143.1 235.7 154 235.7 171.5Z" fill="#FFBC96"/>
<path d="M236.4 161.7C234.9 143.8 231.3 126.9 214.7 131.2C208.4 122.4 182 122.6 175.6 143.5C172.5 153.5 166.3 161 163.2 164.3C162.4 165.2 162.6 166.7 163.8 167.2C178.7 173.9 190 168.1 209.6 153.1C216.1 162.5 234.5 163.2 234.5 163.2L236.4 161.7Z" fill="#535353"/>
<path d="M233.9 165.9C234.6 160.3 231.7 155.2 227.3 154.6C222.9 154 218.7 158.1 218 163.8C217.3 169.4 220.2 174.5 224.6 175.1C229 175.6 233.2 171.5 233.9 165.9Z" fill="#FFBC96"/>
<path d="M235.1 164.7C234.6 165.1 234.2 165.6 234 166.2C233.8 166.8 233.6 167.4 233.7 168C233.7 168.6 233.8 169.3 234 169.9C234.2 170.5 234.5 171.1 234.9 171.6L234.6 172.1C233.8 171.8 233.2 171.2 232.8 170.4C232.4 169.7 232.2 168.8 232.2 168C232.2 167.1 232.4 166.3 232.9 165.6C233.1 165.2 233.4 164.9 233.7 164.7C234 164.4 234.4 164.3 234.8 164.2L235.1 164.7Z" fill="#FF9C78"/>
<path d="M209.1 176.7C210.5 176.6 211.5 175.3 211.4 173.7C211.3 172.1 210.1 171 208.7 171.1C207.3 171.2 206.3 172.5 206.4 174.1C206.5 175.6 207.7 176.8 209.1 176.7Z" fill="#535353"/>
<path d="M194.7 182.2C195.9 181.7 196.4 180.3 195.9 179C195.4 177.7 194 177 192.8 177.4C191.6 177.9 191.1 179.3 191.6 180.6C192.1 181.9 193.5 182.7 194.7 182.2Z" fill="#535353"/>
<path d="M213.7 166.5C213.9 167.3 209.7 167.7 208 168.3C206.5 168.9 204.5 170.7 203.2 169.4C202 168.2 204.2 166.3 207.1 165.7C209.9 165.1 213.6 165.8 213.7 166.5Z" fill="#535353"/>
<path d="M186.7 176.4C187.1 177.1 189.4 175 190.7 174.5C191.8 174.1 194 174.3 193.7 172.6C193.5 171.1 191.2 170.9 189.3 172.1C187.5 173.2 186.3 175.8 186.7 176.4Z" fill="#535353"/>
<path d="M202.2 180.6C202.5 181.7 202.6 182.9 202.3 184C202.1 184.6 201.9 185.1 201.6 185.6C201.3 185.9 201.1 186.3 201 186.7C201 186.8 201 187 201 187.1C201 187.2 201 187.2 201 187.2C201 187.2 201.1 187.2 201.1 187.3C201.5 187.5 201.9 187.6 202.3 187.6C203.3 187.7 204.3 187.7 205.3 187.7L205.4 188.3C204.4 188.7 203.3 188.9 202.2 188.9C201.6 188.9 200.9 188.8 200.3 188.5C200.1 188.4 200 188.2 199.8 188.1C199.7 187.9 199.6 187.7 199.5 187.5C199.4 187.1 199.3 186.7 199.4 186.3C199.6 185.7 199.9 185.2 200.3 184.7C200.6 184.3 200.8 183.9 201 183.5C201.3 182.6 201.5 181.6 201.5 180.6H202.2Z" fill="#FF9C78"/>
<path d="M313.3 239C308.5 228.9 301 220.2 291.7 213.9C282.4 207.6 271.6 203.9 260.3 203.3L255.6 203L290 281.4L327.7 267.4L313.3 239Z" fill="#FF4600"/>
<path d="M345.8 322C345.6 333.5 340.6 341.5 334.4 346.1L321.7 345.9L318.6 345.8H318.5L303.6 311.8V311.7L290.2 281.2L327.9 267.2L342 301.7C344.7 309.4 345.8 316.2 345.8 322Z" fill="#FFBC96"/>
<path d="M335.3 308.3L236.5 319.4L223.6 315.2C220.7 314.3 217.7 314.1 214.7 314.6C211.7 315.1 209 316.4 206.6 318.3C195.4 327.3 177.1 343.8 181.9 345.1C189.9 347.3 200.2 343.2 209.6 340.8C214.7 339.5 220.2 340.1 224.9 342.5L231.4 345.8H329.9L335.3 308.3Z" fill="#FFBC96"/>
<path d="M184.3 343.3C187 341.7 189.7 340.3 192.4 338.8C195.1 337.3 197.9 335.9 200.6 334.5C202 333.7 203.4 333.1 204.9 332.5C206.4 332 208 331.6 209.5 331.4C211.1 331.2 212.7 331.2 214.2 331.3C215.8 331.5 217.3 331.8 218.8 332.3L218.6 332.9C217.1 332.6 215.6 332.4 214.1 332.4C212.6 332.3 211.1 332.5 209.6 332.7C208.1 332.9 206.7 333.3 205.3 333.9C203.9 334.4 202.5 335.1 201.2 335.8C198.4 337.2 195.7 338.6 192.9 339.9C190.1 341.2 187.3 342.6 184.5 343.8L184.3 343.3Z" fill="#FF9C78"/>
<path d="M185.7 338.4C187.5 336.7 189.4 335.1 191.3 333.6C193.2 332 195.2 330.5 197.2 329.1C199.2 327.7 201.3 326.3 203.5 325.1C205.7 324 207.9 322.7 210.5 322.5L210.6 323.1C209.5 323.4 208.3 323.9 207.3 324.4C206.2 324.9 205.2 325.6 204.2 326.2C202.1 327.5 200.1 328.9 198.1 330.3C196.1 331.7 194.1 333.1 192.1 334.6C190.1 336 188.1 337.5 186.1 338.9L185.7 338.4Z" fill="#FF9C78"/>
<path d="M316.6 310.8L303.3 311.1V312.6L316.6 312.3V310.8Z" fill="#FF9C78"/>
<path d="M280.8 261.3L279.9 261.7L289.5 281.3L290.4 280.9L280.8 261.3Z" fill="#DD3D00"/>
<path d="M172.7 266.9L171.8 266.6L164.9 287.3L165.8 287.6L172.7 266.9Z" fill="#DD3D00"/>
<path opacity="0.5" d="M345.8 322C345.6 333.5 340.6 341.5 334.4 346.1L321.7 345.9C321.7 345.9 321.7 345.9 321.7 345.8C321.2 344.1 321 342.3 321 340.6C321 336.7 322.2 332.9 324.4 329.7C326.6 326.5 329.7 324 333.4 322.6C335.6 321.7 338 321.3 340.5 321.3C342.1 321.2 344 321.5 345.8 322Z" fill="#FF9C78"/>
<path d="M188.3 333.8H131.6V345.7H188.3V333.8Z" fill="#A1A1A1"/>
<path d="M150.8 345.8H60.8004L34.9004 255.8H124.9L150.8 345.8Z" fill="#D6D6D6"/>
<path d="M60.4004 345.9L34.4004 255.4H62.3004V256.1H35.4004L61.1004 345.7L60.4004 345.9Z" fill="#A1A1A1"/>
<path d="M141.2 312.9L124.7 256.2H83.2002V255.5H125.3L142 312.8L141.2 312.9Z" fill="#A1A1A1"/>
<path d="M465 344H11V346H465V344Z" fill="#A1A1A1"/>
<path d="M216.7 187.3C216.7 187.3 210.7 194.1 199.9 194.7C199.9 194.6 211.8 198 216.7 187.3Z" fill="#535353"/>
</g>
<defs>
<clipPath id="clip0_2221_52">
<rect width="476" height="346" fill="white"/>
</clipPath>
</defs>
</svg>
